<svg xmlns="http://www.w3.org/2000/svg" viewBox="0 0 24 24">
  <path fill="#000000" d="M19.43 12.98c.04-.32.07-.65.07-.98s-.02-.66-.07-.98l2.11-1.65c.19-.15.24-.42.12-.64l-2-3.46c-.12-.22-.37-.31-.6-.22l-2.49 1c-.51-.4-1.08-.73-1.69-.98l-.38-2.65A.49.49 0 0 0 14 2h-4c-.25 0-.46.17-.5.42l-.38 2.65c-.61.25-1.18.58-1.69.98l-2.49-1c-.23-.08-.48 0-.6.22l-2 3.46c-.12.22-.07.49.12.64l2.11 1.65c-.05.32-.08.65-.08.98s.03.66.08.98l-2.11 1.65c-.19.15-.24.42-.12.64l2 3.46c.12.22.37.31.6.22l2.49-1c.51.4 1.08.73 1.69.98l.38 2.65c.04.25.25.42.5.42h4c.25 0 .46-.17.5-.42l.38-2.65c.61-.25 1.18-.58 1.69-.98l2.49 1c.23.08.48 0 .6-.22l2-3.46c.12-.22.07-.49-.12-.64l-2.11-1.65zM12 15.5A3.5 3.5 0 1 1 12 8a3.5 3.5 0 0 1 0 7.5z"/>
</svg>
